<svg width="598" height="139" viewBox="0 0 598 139" fill="none" xmlns="http://www.w3.org/2000/svg">
<path d="M117.007 91.4047C117.007 92.9482 116.454 94.2731 115.348 95.3793C114.267 96.4598 112.955 97 111.412 97C109.868 97 108.543 96.4469 107.437 95.3407L77.8011 65.7048L48.1652 95.3407C47.059 96.4469 45.7342 97 44.1906 97C42.6471 97 41.3222 96.4598 40.216 95.3793C39.1356 94.2731 38.5953 92.9482 38.5953 91.4047V46.6035C38.5953 45.06 39.1356 43.748 40.216 42.6675C41.3222 41.5613 42.6471 41.0082 44.1906 41.0082C45.7342 41.0082 47.0462 41.5613 48.1267 42.6675C49.2329 43.748 49.786 45.06 49.786 46.6035V77.8601L73.8265 53.8196C74.9327 52.7391 76.2576 52.1989 77.8011 52.1989C79.3447 52.1989 80.6696 52.7391 81.7758 53.8196L105.816 77.8601V46.6035C105.816 45.06 106.357 43.748 107.437 42.6675C108.543 41.5613 109.868 41.0082 111.412 41.0082C112.955 41.0082 114.267 41.5613 115.348 42.6675C116.454 43.748 117.007 45.06 117.007 46.6035V91.4047ZM195.419 74.6187V61.846L167.403 52.5076L139.427 61.846V74.6187H195.419ZM206.609 91.4047C206.609 92.9482 206.056 94.2731 204.95 95.3793C203.869 96.4598 202.557 97 201.014 97C199.47 97 198.146 96.4598 197.039 95.3793C195.959 94.2731 195.419 92.9482 195.419 91.4047V85.8094H139.427V91.4047C139.427 92.9482 138.874 94.2731 137.768 95.3793C136.661 96.4598 135.336 97 133.793 97C132.249 97 130.925 96.4598 129.818 95.3793C128.738 94.2731 128.198 92.9482 128.198 91.4047V57.7942C128.198 55.3245 129.471 53.5623 132.018 52.5076L132.095 52.469H132.134L165.628 41.2783C166.194 41.0983 166.786 41.0082 167.403 41.0082C168.021 41.0082 168.613 41.0983 169.179 41.2783L202.673 52.469H202.75L202.789 52.5076C205.336 53.5623 206.609 55.3245 206.609 57.7942V91.4047ZM290.578 85.7708C292.173 85.8222 293.498 86.3882 294.552 87.4687C295.633 88.5234 296.173 89.8226 296.173 91.3661C296.173 92.9096 295.62 94.2345 294.514 95.3407C293.433 96.4469 292.121 97 290.578 97H223.395C221.852 97 220.527 96.4469 219.421 95.3407C218.34 94.2345 217.8 92.9096 217.8 91.3661V46.5649C217.8 45.0214 218.34 43.7094 219.421 42.6289C220.527 41.5227 221.852 40.9696 223.395 40.9696C224.939 40.9696 226.251 41.5227 227.331 42.6289C228.437 43.7094 228.991 45.0214 228.991 46.5649V85.7708H290.578ZM380.219 85.7708C381.762 85.7708 383.074 86.3239 384.155 87.4301C385.261 88.5105 385.814 89.8226 385.814 91.3661C385.814 92.9096 385.261 94.2345 384.155 95.3407C383.074 96.4469 381.762 97 380.219 97H312.998C311.454 97 310.129 96.4469 309.023 95.3407C307.942 94.2345 307.402 92.9096 307.402 91.3661V46.5649C307.402 45.0214 307.942 43.7094 309.023 42.6289C310.129 41.5227 311.454 40.9696 312.998 40.9696H380.219C381.762 40.9696 383.074 41.5227 384.155 42.6289C385.261 43.7094 385.814 45.0214 385.814 46.5649C385.814 48.1085 385.261 49.4334 384.155 50.5396C383.074 51.62 381.762 52.1603 380.219 52.1603H318.593V63.3895H369.028C370.571 63.3895 371.883 63.9426 372.964 65.0488C374.07 66.1293 374.623 67.4413 374.623 68.9848C374.623 70.5283 374.07 71.8532 372.964 72.9594C371.883 74.0399 370.571 74.5801 369.028 74.5801H318.593V85.7708H380.219Z" fill="white"/>
<path d="M514.486 78.2089V52.509H466.405L458.455 60.4197V86.1195H506.536L514.486 78.2089ZM520.081 41.3184C521.625 41.3184 522.937 41.8715 524.017 42.9777C525.123 44.0582 525.676 45.3702 525.676 46.9137V80.5242C525.676 82.0678 525.123 83.3798 524.017 84.4602L512.826 95.6895C511.746 96.7699 510.421 97.3102 508.852 97.3102H452.86C451.316 97.3102 449.992 96.7699 448.885 95.6895C447.805 94.5833 447.265 93.2584 447.265 91.7149V58.1044C447.265 56.5608 447.818 55.2488 448.924 54.1683L460.115 42.9391C461.195 41.8586 462.507 41.3184 464.051 41.3184H520.081ZM536.867 91.7149C536.867 90.1713 537.407 88.8593 538.488 87.7788C539.594 86.6726 540.932 86.1195 542.501 86.1195H553.692C555.235 86.1195 556.547 86.6726 557.628 87.7788C558.734 88.8593 559.287 90.1713 559.287 91.7149C559.287 93.2584 558.734 94.5833 557.628 95.6895C556.547 96.7699 555.235 97.3102 553.692 97.3102H542.501C540.932 97.3102 539.594 96.7699 538.488 95.6895C537.407 94.5833 536.867 93.2584 536.867 91.7149Z" fill="white"/>
</svg>
